# xmcd CD database file
#
# Track frame offsets:
#	150
#	11856
#	23704
#	40084
#	47926
#	58683
#	78821
#	91910
#	111751
#	128190
#	156297
#	180918
#	200386
#	211694
#	241638
#	259626
#	272172
#	289586
#	303610
#	317984
#
# Disc length: 4443 seconds
#
# Revision: 0
# Processed by: cddbd v1.5.2PL0 Copyright (c) Steve Scherf et al.
# Submitted via: CDex 1.51
#
DISCID=0a115914
DTITLE=Cleo Lane - John Dankworth - I Hear Music - Dsc 3
DYEAR=2007
DGENRE=Jazz
TTITLE0=Winter Scene
TTITLE1=You'll Answer to Me
TTITLE2=You've Done Something to My Heart
TTITLE3=It Was a Lover and His Lass
TTITLE4=Shall I Compare Thee to a Summer's Day
TTITLE5=O Tell Me the Truth About Love
TTITLE6=Peel Me a Grape
TTITLE7=Bill
TTITLE8=If
TTITLE9=Summertime
TTITLE10=Bess, You Is My Woman
TTITLE11=He Was Beautiful
TTITLE12=I'm Gonna Sit Right Down and Write Myself a Letter
TTITLE13=Just A-Sittin' and A-Rockin'
TTITLE14=Just A-Sittin' and A-Rockin'
TTITLE15=Thieving Boy
TTITLE16=Born on a Friday
TTITLE17=On a Clear Day
TTITLE18=Ridin' High
TTITLE19=Play It Again Sam
EXTD=YEAR: 2007
EXTT0=
EXTT1=
EXTT2=
EXTT3=
EXTT4=
EXTT5=
EXTT6=
EXTT7=
EXTT8=
EXTT9=
EXTT10=
EXTT11=
EXTT12=
EXTT13=
EXTT14=
EXTT15=
EXTT16=
EXTT17=
EXTT18=
EXTT19=
PLAYORDER=
